<?xml version="1.0" standalone="no"?>
<!DOCTYPE svg PUBLIC "-//W3C//DTD SVG 20010904//EN"
 "http://www.w3.org/TR/2001/REC-SVG-20010904/DTD/svg10.dtd">
<svg version="1.0" xmlns="http://www.w3.org/2000/svg"
 width="500.000000pt" height="500.000000pt" viewBox="0 0 500.000000 500.000000"
 preserveAspectRatio="xMidYMid meet">

<g transform="translate(0.000000,500.000000) scale(0.100000,-0.100000)"
fill="#000000" stroke="none">
<path d="M0 2500 l0 -2500 2500 0 2500 0 0 2500 0 2500 -2500 0 -2500 0 0
-2500z m2814 1315 c-5 -13 -47 -15 -317 -13 -237 2 -311 6 -315 16 -3 9 65 12
317 12 282 0 320 -2 315 -15z m-669 -100 c-34 -62 -58 -85 -71 -72 -4 3 16 44
42 91 41 72 50 83 58 67 6 -15 -1 -37 -29 -86z m737 18 c55 -99 53 -93 31 -93
-22 0 -105 134 -96 156 10 26 21 14 65 -63z m-102 -85 c0 -5 -7 -8 -15 -8 -17
0 -18 2 -9 25 5 13 8 14 15 3 5 -7 9 -16 9 -20z m-536 7 c4 -10 -1 -15 -14
-15 -13 0 -18 5 -14 15 4 8 10 15 14 15 4 0 10 -7 14 -15z m236 -94 l0 -88
-77 -7 c-42 -3 -78 -5 -80 -3 -9 10 62 130 93 156 57 51 64 44 64 -58z m109
50 c32 -32 95 -140 87 -148 -2 -2 -37 0 -79 3 l-77 7 0 88 c0 105 8 111 69 50z
m-239 14 c0 -3 -11 -22 -24 -43 -13 -21 -32 -61 -42 -89 -17 -47 -22 -53 -61
-64 -24 -6 -64 -25 -89 -41 -26 -16 -48 -27 -51 -24 -9 9 51 109 92 153 49 53
175 130 175 108z m367 -25 c68 -39 146 -119 177 -183 14 -28 24 -52 22 -54 -2
-3 -22 7 -43 20 -22 14 -62 33 -91 43 -48 17 -52 21 -72 75 -11 31 -31 73 -45
93 -30 44 -17 46 52 6z m-540 -20 c-23 -18 -40 -20 -209 -20 -150 0 -188 -3
-206 -16 l-22 -15 0 -526 c0 -476 2 -528 17 -545 15 -17 51 -18 741 -18 661 0
727 1 744 17 17 15 18 45 18 540 0 510 -1 524 -20 543 -19 19 -33 20 -207 20
-171 0 -190 2 -213 20 -25 20 -25 20 236 20 189 0 263 -3 272 -12 9 -9 12
-154 12 -589 0 -512 -2 -579 -16 -593 -14 -14 -103 -16 -828 -16 -618 0 -815
3 -824 12 -17 17 -17 1169 0 1186 9 9 83 12 271 12 l260 0 -26 -20z m-67 -64
c0 -2 -15 -29 -34 -60 -173 -288 12 -671 352 -727 193 -32 407 75 501 250 84
158 76 354 -20 499 l-28 42 164 0 c152 0 165 -1 175 -19 6 -13 10 -191 10
-510 0 -432 -2 -491 -16 -505 -14 -14 -92 -16 -710 -16 -460 0 -702 4 -715 10
-18 10 -19 27 -19 510 0 274 3 505 6 514 5 14 30 16 170 16 90 0 164 -2 164
-4z m370 -186 l0 -100 -101 0 -101 0 6 28 c2 15 8 53 11 85 4 32 12 60 18 63
12 4 118 21 150 23 15 1 17 -10 17 -99z m180 81 c31 -6 36 -11 42 -46 4 -22 7
-61 7 -87 l1 -48 -95 0 -95 0 0 100 0 101 53 -7 c28 -3 68 -9 87 -13z m-416
-104 l-7 -77 -88 0 c-102 0 -109 7 -58 64 26 31 146 102 156 93 2 -2 0 -38 -3
-80z m590 45 c48 -26 106 -86 106 -109 0 -10 -24 -13 -90 -13 l-90 0 0 38 c-1
20 -5 56 -9 80 -8 40 -7 42 13 36 11 -3 43 -18 70 -32z m-591 -234 c3 -40 4
-74 2 -77 -10 -10 -109 45 -146 81 -61 59 -55 68 50 68 l88 0 6 -72z m237 -24
l0 -97 -74 6 c-103 9 -104 10 -111 75 -3 32 -9 69 -11 85 l-6 27 101 0 101 0
0 -96z m227 20 c-3 -44 -11 -83 -19 -90 -8 -8 -48 -17 -91 -20 l-77 -7 0 97 0
96 96 0 97 0 -6 -76z m233 69 c0 -15 -35 -61 -60 -81 -27 -20 -75 -47 -112
-61 l-23 -9 9 79 10 79 88 0 c48 0 88 -3 88 -7z m-723 -187 c45 -15 49 -20 71
-76 13 -32 34 -75 47 -95 14 -19 22 -35 19 -35 -2 0 -28 12 -56 26 -89 45
-173 136 -211 226 l-15 35 49 -32 c26 -18 70 -40 96 -49z m678 13 c-37 -72
-114 -150 -184 -188 -32 -17 -61 -31 -65 -31 -3 0 8 21 24 46 16 26 36 68 45
94 15 45 19 49 73 69 31 11 73 31 92 45 19 13 36 23 38 21 2 -2 -9 -27 -23
-56z m-482 -54 l67 -7 0 -89 c0 -49 -3 -89 -8 -89 -28 0 -83 56 -115 118 -41
77 -43 87 -24 79 8 -3 44 -8 80 -12z m257 -10 c-13 -34 -47 -97 -62 -115 -18
-22 -69 -60 -79 -60 -5 0 -9 40 -9 89 l0 88 73 10 c39 6 75 11 79 12 4 0 3
-10 -2 -24z m-1044 -231 c-2 -6 -20 -14 -39 -18 -33 -6 -40 -16 -129 -171 -68
-120 -98 -165 -112 -165 -24 0 -25 -2 93 204 60 104 98 181 95 190 -4 9 15 51
42 98 l49 83 3 -104 c1 -58 1 -110 -2 -117z m1802 125 c18 -31 32 -68 32 -82
0 -14 46 -106 105 -207 58 -100 105 -184 105 -186 0 -2 -8 -4 -19 -4 -14 0
-43 44 -112 164 -87 153 -97 165 -129 173 l-35 9 -3 114 c-3 128 -5 127 56 19z
m-1813 -439 c-15 -28 -19 -30 -75 -30 -33 0 -60 2 -60 5 0 3 33 61 73 130 l72
126 3 -101 c2 -75 -1 -107 -13 -130z m1813 133 c27 -49 59 -105 72 -125 l22
-38 -64 0 c-60 0 -66 2 -76 25 -11 23 -18 225 -8 225 2 0 26 -39 54 -87z
m-728 -238 l0 -55 -200 0 -200 0 0 55 0 55 200 0 200 0 0 -55z m-1195 -210
c112 -195 145 -260 140 -277 -5 -20 -4 -21 5 -5 10 15 31 17 207 17 l195 0 35
30 34 30 377 0 378 0 29 -30 29 -30 182 0 c175 0 234 -8 234 -30 0 -6 -78 -10
-224 -10 -139 0 -227 -4 -231 -10 -8 -13 -777 -14 -791 0 -5 5 -106 11 -238
12 l-229 3 -124 215 c-204 352 -198 340 -175 340 16 0 52 -56 167 -255z m2163
233 c-8 -13 -79 -134 -157 -270 -79 -137 -147 -248 -151 -248 -27 0 -3 53 123
271 78 134 146 250 150 257 5 6 17 12 29 12 19 0 19 -2 6 -22z m-838 -128 c0
-6 -117 -10 -330 -10 -213 0 -330 4 -330 10 0 6 117 10 330 10 213 0 330 -4
330 -10z m0 -50 c0 -6 -117 -10 -330 -10 -213 0 -330 4 -330 10 0 6 117 10
330 10 213 0 330 -4 330 -10z m-455 -160 c28 -29 31 -30 125 -30 94 0 97 1
125 30 l29 30 285 0 286 0 28 -50 28 -50 -780 0 c-430 0 -781 2 -781 4 0 2 12
24 26 50 l26 46 287 0 287 0 29 -30z m-805 -480 c0 -18 -7 -20 -75 -20 l-75 0
0 -30 0 -30 64 0 c41 0 68 -5 75 -13 17 -22 3 -27 -71 -27 l-68 0 0 -30 0 -29
72 -3 c61 -3 73 -6 76 -21 3 -16 -5 -18 -90 -15 l-93 3 -3 104 c-1 58 0 111 2
118 4 9 30 13 96 13 83 0 90 -1 90 -20z m185 6 c69 -29 87 -139 31 -195 -24
-23 -34 -26 -99 -26 l-72 0 -3 104 c-1 58 0 111 2 118 7 18 97 17 141 -1z
m155 -73 c6 -92 18 -113 66 -113 56 0 72 27 76 135 2 46 7 60 18 60 12 0 16
-16 18 -74 5 -120 -24 -161 -111 -161 -40 0 -53 5 -78 29 -27 28 -29 34 -29
114 0 46 3 87 7 91 18 18 28 -8 33 -81z m290 7 c22 -44 44 -80 48 -80 5 0 24
32 42 71 39 80 55 98 72 81 9 -9 2 -33 -31 -101 -56 -114 -75 -139 -93 -124
-26 22 -112 199 -105 216 12 31 27 17 67 -63z m393 66 c9 -22 -2 -26 -75 -26
l-68 0 0 -30 c0 -29 0 -29 68 -32 52 -2 67 -6 67 -18 0 -12 -15 -16 -67 -18
-68 -3 -68 -3 -68 -32 l0 -29 73 -3 c56 -2 72 -6 72 -18 0 -20 -174 -28 -187
-8 -13 21 -10 202 4 216 18 18 174 16 181 -2z m234 -20 c29 -35 26 -80 -8
-109 l-22 -18 22 -22 c23 -26 28 -57 8 -57 -7 0 -31 18 -52 40 -48 49 -85 54
-85 13 0 -37 -14 -57 -34 -50 -13 5 -16 25 -16 115 0 60 3 112 8 116 4 4 40 6
81 4 66 -3 76 -6 98 -32z m233 9 c11 -10 20 -24 20 -32 0 -18 -28 -17 -46 2
-31 30 -114 14 -114 -22 0 -13 16 -18 92 -28 56 -7 78 -26 78 -65 0 -43 -40
-70 -104 -70 -56 0 -116 29 -116 55 0 26 30 30 46 6 12 -16 25 -21 63 -21 59
0 87 23 56 46 -10 8 -34 14 -52 14 -102 0 -151 82 -75 125 36 21 125 15 152
-10z m105 -95 c0 -108 -1 -115 -20 -115 -18 0 -20 8 -23 95 -3 113 2 143 26
138 15 -3 17 -18 17 -118z m230 110 c5 -8 12 -7 22 2 16 13 29 2 80 -67 12
-17 23 -28 25 -25 33 46 81 100 88 100 23 0 14 -32 -23 -81 -32 -42 -43 -65
-47 -104 -4 -37 -9 -51 -22 -53 -15 -3 -18 4 -18 43 0 40 -7 55 -44 103 l-43
57 -52 -3 -51 -4 0 -100 c0 -89 -2 -99 -17 -96 -15 3 -18 17 -21 101 l-3 97
-39 0 c-39 0 -56 12 -45 30 8 14 202 13 210 0z"/>
<path d="M1650 1400 l0 -80 43 0 c55 0 82 26 82 80 0 54 -27 80 -82 80 l-43 0
0 -80z"/>
<path d="M2690 1434 l0 -47 46 7 c58 7 64 12 64 41 0 29 -26 45 -74 45 l-36 0
0 -46z"/>
</g>
</svg>
